<svg data-name="Layer 1" xmlns="http://www.w3.org/2000/svg" viewBox="0 0 76.17 68.96"><path d="M71.91 46H4.25A4.27 4.27 0 000 50.29v3.46A4.26 4.26 0 004.25 58h1v1a10 10 0 009.88 10H61a10 10 0 0010-10v-1h1a4.27 4.27 0 004.26-4.25v-3.46A4.27 4.27 0 0071.91 46zM68 59a6.94 6.94 0 01-7 7H15.13a6.93 6.93 0 01-6.92-7v-1H68zm5.21-5.29a1.27 1.27 0 01-1.3 1.29H4.25A1.26 1.26 0 013 53.75v-3.46A1.27 1.27 0 014.25 49h67.66a1.28 1.28 0 011.26 1.25zM16.16 37.86l5.48 4 5.47-4 5.48 4 5.48-4 5.48 4 5.48-4 5.48 4 5.47-4 5.49 4 6.37-4.65-1.77-2.42-4.6 3.35-5.49-4-5.47 4-5.48-4-5.48 4-5.48-4-5.48 4-5.48-4-5.47 4-5.48-4-5.47 4-4.6-3.35-1.77 2.42 6.37 4.65 5.47-4zm54.73-6.77v-3C70.24 12.48 55.8 0 38.08 0S5.92 12.48 5.24 28.09v3zM38.08 3c16 0 29.15 11.15 29.84 25.09H8.24C8.93 14.15 22.05 3 38.08 3z"/><circle cx="38.08" cy="15.04" r="2"/><circle cx="30.08" cy="10.08" r="2"/><circle cx="46.08" cy="10.08" r="2"/></svg>