<svg id="Layer_1" data-name="Layer 1" xmlns="http://www.w3.org/2000/svg" viewBox="0 0 101.67 83.98"><defs><style>.cls-1{fill:#23a9e1}.cls-2{fill:#491213}.cls-3{fill:#fff}</style></defs><g id="Layer_2" data-name="Layer 2"><g id="Layer_2-2" data-name="Layer 2"><path class="cls-1" d="M0 0l50.58 59.05L101.67 0H0z"/><path class="cls-2" d="M50.92 0H0v22.46L50.58 84l.34-.42 50.75-60.39V0zm0 57.05l-.34.41L3.71 1.78h94.42z"/><path class="cls-2" d="M50.58 57.46l.34-.41L78.5 24.76c-6.92.95-11.87 6.08-18.61 5-3.39-.56-3.5-2.51-4.47-4.46-.74-1.49-1.94-1.3-3.48-1.91s-2.28-1.73-5.17-1.06c-2.52.59-2.81 4.52-6 4.3-1.69-.13-1.81-2.5-4.24-5.54-6.3-7.57-12.16-6.53-16.25.47z"/><path class="cls-3" d="M23.28 32.25a2.79 2.79 0 01.8 2.11c0 .58-.93 1.55-.27 1.85l2.25-2.83c-.6-.15-5.37-5.85-5.44-6.48l-3.16 1.74c.16.66 1.29 0 1.85 0a2.89 2.89 0 012 1.16c-1.73 1.45-5.93 5-6.37 5.09-.23 0-1.09-.6-1.1-.06 0 .26.85 1 1 1.21L17 38.73c.62-.28-.11-.73.21-1.24s4.9-4.27 6-5.24zM18 25.27c.44-.1.62.43.95-.06-.81-1-1.63-1.94-2.44-2.92-.38-.44-.84-.91-.71 0 .09.63-6.11 5.67-6.49 5.82s-.76-.41-1.11.1l2.19 2.61c.25.29.48.61.75.88s.21-.67.22-.59c-.09-.51.53-.94.86-1.22A58.94 58.94 0 0118 25.27zm-8.76-.92a3.22 3.22 0 01-4.21-2c-.54-1.84.61-3.76 2.07-4.8s3.59-1 4.37.84a3.59 3.59 0 01-.09 2.5c-.16.5-.6 1 0 1.29L14 18.85c-1.06-.63-1.52-1.68-2.31-2.59A5.89 5.89 0 008.23 14c-2.87-.4-5.57 2.56-5.79 5.25a5.75 5.75 0 001.24 4c.75 1 1.87 1.62 2.44 2.75a22.55 22.55 0 003.29-1.25 2.09 2.09 0 00-.17-.37zm39.3 36.41c-1.15-.77-4-4.69-4.58-5.34l-.33-.42s-.28.22-.24.19c-.18.14.13.57-.06.86-.79 1.24-5.75 5-6 5.16-.56.39-1.17-.15-1.49.32a46 46 0 003 3.58c.48.08.15-.81.21-1a30.37 30.37 0 013.55-3.21c.34-.28.69.42.89.72a1.78 1.78 0 01.3 1.57c-.12.37-.72.92-.25 1.17l2.61-3c.25-.3-.57 0-.47-.09a.92.92 0 01-1.06 0c-.1-.07-1.09-1.08-1-1.17a4.73 4.73 0 011.53-1.1c.87-.21 1.59 1.52 1.71 2.13a3.46 3.46 0 01-.07 1.75c-.13.39-.49.7 0 .93l2.13-2.92a.68.68 0 01-.4-.09zm-10.23-4.13a5.48 5.48 0 10-7.79-1.07 5.42 5.42 0 007.79 1.07c1.16-.98-.1.07 0 0zm-.46-4.75a7.41 7.41 0 01-3.74 3.66c-1.81.72-3.1-.82-2.35-2.55a7.45 7.45 0 013.73-3.67c1.85-.73 3.07.85 2.36 2.56-.38.89.07-.17 0 0zM31.87 42c.47.06.92.55 1.27 0l-2.23-2.63c-.6.26.05.55-.2 1s-2.56.78-3.17.89a14.93 14.93 0 011.16-2.84c.54-.44.88.43 1.28-.14l-2.75-3.25c-.31-.37-.55-1-1-.68a8.47 8.47 0 01-.08 1.73c-.09.24-.94 3.64-1.93 4.47a20.88 20.88 0 01-2.7 2.1c-.54.19-.83-.6-1.22 0l2.49 3c.12.15.6.86.77.89.52.1.06-.89.11-1.09.15-.43 2.5-2.71 3.5-2.85a19 19 0 014.7-.6zm37.34 10.45a5.06 5.06 0 01.21 2c-.11.87-1 2.92-2.17 2.34a18.6 18.6 0 01-3.19-2.55c.8-.94 1.51-1.75 2.85-1.3.37.12.69 0 .3-.26s-3.11-2-3.26-1.8.53.87.22 1.47a6.9 6.9 0 01-.93 1.22c-.72-.61-1.92-1.25-1.06-2.25a3.69 3.69 0 012.1-1.32c.57-.11 1.84.39 2-.22-1.09-.52-2.17-1-3.26-1.56.18.79-3.35 4.52-4.13 5.46-.11.14-.66.61-.67.8 0 .42.63.09.66.08.49-.18 6.82 5.11 7 5.47s-.22.58 0 .73c0 0 .23.22.26.19.39-.47 4.52-6 5.37-6.22-.79-1.21-1.59-2.43-2.37-3.65-.64.24-.07.92.07 1.37zM63 59.15c-2.07-1.34-5.59 1.28-6.12 1.53-1 .49-1.79-.54-1.25-1.5A2.78 2.78 0 0158 57.89c.27 0 1.35.2 1.46 0s.23-.23 0-.35l-2.57-1.73c-.17 1-1.38 1.73-2.07 2.44a4.7 4.7 0 00-1.52 3.15 3 3 0 001.7 2.69 3.29 3.29 0 003.33-.51 19.66 19.66 0 011.92-1.17c1-.47 2.31-.06 1.95 1.27A3.58 3.58 0 0159.79 66a3.22 3.22 0 01-1.87-.09c-.43-.14-1-.73-1.23-.11l3.48 2.54a2.35 2.35 0 011.08-1.57 11.48 11.48 0 002-2.12c1.16-1.65 1.54-4.05-.25-5.5zm0 0c.93.6-.59-.49 0 0zm36.73-39.52c-.72.73-8.42-2.34-9-2.77-.29-.11-.3-1.32-.7-.83s-.81 1-1.22 1.46L87.58 19c-.26.31-.54.45 0 .72.84-.42 5.42 7.34 5 8.46-.73.37-6.92-5.06-7.08-5.42-.06-.14.27-1-.22-.94-.22 0-.74.89-.88 1.07L83.48 24c.33.49.51 0 1 0a13.81 13.81 0 012.24 1.67c-.73 0-2.69.13-2.94.11-.9.11-.42-.66-1-.93l-2.28 2.76-1.33 1.61c-.05.07 0 0 0 .11.33.28.11.17.57 0s6.56 4.93 6.78 5.19c.37.45-.16 1 .41 1.22l1.8-2.18c.09-.11.14-.1 0-.2-.43-.35-.48.21-1 .15s-4.4-3.37-5.9-4.61l8.2-.3c.3 0 1.14.89 1.06 1.21s-.46.56.06.8c.48-.58 1-1.15 1.45-1.74l.23-.28a.63.63 0 00.21-.26l.17-.21c.43-.49 1.8-2 1.64-2.15-.47-.4-.69.46-1.3-.06a12.89 12.89 0 01-1.44-2.16c-.27-.45.6-.9 1-1.12.78-.48 3.25-1.18 3.48.35 0 .26-.27.55-.08.7s.2.25.27.17 2.36-2.85 3.3-4c-.08-.03-.23-.18-.35-.22zm-7.37 2.15l-.08.06.08-.05a5.44 5.44 0 00-1 .76l-1.56-2.7 3.52 1.49a3.72 3.72 0 00-.96.44zM82.62 33a5.48 5.48 0 10.59 7.6 5.38 5.38 0 00-.59-7.6zm-.29 6.61c-1.23 1.3-3.36.1-4.51-.73S74.69 36.34 76 34.8c1.06-1.29 3.12-.23 4.19.48s3.41 2.6 2.27 4.22c.03-.09.08-.15-.13.11z"/><path class="cls-3" d="M82.62 33c1.17 1-.26-.22 0 0zm-.31 6.64a.76.76 0 00.08-.11.62.62 0 00-.08.11zM76 42.12c.11.09.28.22-.06-.06-2.83-2.12-6.19-1.5-8.4 1.16l-3 3.57c.35.51.76-.12 1.27.17s6.25 5.1 6.34 5.37c.16.45-.25.54.14.87.18.15 4.54-5.24 4.94-6.19A4.33 4.33 0 0076 42.12zm-1.31 6.75c-.24.3 0 .06-.67.65-.31.3-6.44-4.67-6.19-4.94a4.34 4.34 0 013.58-1.3c2.21.56 5.23 3.26 3.3 5.59z"/></g><path class="cls-2" d="M50.58 57.48l.34-.41L78.5 24.78c-6.92.95-11.87 6.08-18.61 5-3.39-.57-3.5-2.52-4.47-4.46-.74-1.49-1.93-1.3-3.48-1.91s-2.28-1.74-5.17-1.06c-2.52.59-2.8 4.52-6 4.29-1.69-.12-1.81-2.5-4.24-5.54-6.3-7.57-12.16-6.52-16.25.48z"/><path class="cls-1" d="M46.56 70.92l4.02-6.5 4 6.5-4 6.51-4.02-6.51z"/><path class="cls-3" d="M23.28 32.27a2.78 2.78 0 01.8 2.11c0 .58-.93 1.55-.26 1.85.74-.95 1.49-1.89 2.24-2.84-.6-.15-5.37-5.85-5.44-6.47l-3.16 1.73c.16.67 1.29 0 1.85.05a2.9 2.9 0 012 1.15c-1.72 1.45-5.93 5-6.37 5.09-.23 0-1.09-.6-1.1 0 0 .26.85 1 1 1.21.75.88 1.49 1.77 2.23 2.65.62-.28-.11-.73.21-1.24s4.9-4.27 6-5.24zM18 25.29c.44-.1.62.43.95-.06l-2.44-2.92c-.38-.44-.85-.91-.71 0 .1.69-6.1 5.69-6.48 5.84s-.76-.42-1.11.1l2.19 2.6c.25.3.48.62.75.89s.21-.68.22-.59c-.09-.51.53-.95.86-1.23A58.49 58.49 0 0118 25.29zm-8.76-.92a3.22 3.22 0 01-4.21-2c-.54-1.84.61-3.76 2.07-4.81s3.59-1 4.37.84a3.62 3.62 0 01-.09 2.51c-.16.5-.6 1 0 1.28L14 18.87c-1.06-.64-1.52-1.68-2.31-2.6A5.83 5.83 0 008.23 14c-2.87-.41-5.57 2.55-5.79 5.24a5.73 5.73 0 001.24 4c.75 1 1.87 1.63 2.44 2.76a22.73 22.73 0 003.29-1.26 2 2 0 00-.17-.36zm39.3 36.41c-1.16-.77-4-4.69-4.58-5.34l-.33-.4s-.28.23-.24.19c-.18.15.13.58-.06.87-.79 1.24-5.75 5-6 5.16-.56.39-1.16-.16-1.49.32a46 46 0 003 3.58c.48.08.15-.81.21-1A30.37 30.37 0 0142.61 61c.34-.28.69.42.89.72a1.77 1.77 0 01.29 1.57c-.11.37-.71.92-.25 1.17l2.62-3c.25-.29-.57 0-.47-.08a.92.92 0 01-1.06 0c-.1-.07-1.09-1.08-1-1.17A4.62 4.62 0 0145.15 59c.87-.21 1.59 1.52 1.71 2.13a3.46 3.46 0 01-.07 1.75c-.13.39-.49.7 0 .93.72-1 1.43-1.94 2.14-2.92a.68.68 0 01-.4-.09c-.12-.11.14.05.01-.02zm-10.23-4.13a5.48 5.48 0 10-7.79-1.07 5.42 5.42 0 007.79 1.07c1.16-.98-.1.07 0 0zm-.46-4.76a7.43 7.43 0 01-3.74 3.67c-1.81.71-3.1-.83-2.36-2.55a7.47 7.47 0 013.74-3.67c1.85-.73 3.07.85 2.36 2.55-.39.89.07-.17 0 0zM31.87 42c.47.06.92.55 1.27 0l-2.23-2.64c-.6.27.05.55-.2 1s-2.56.78-3.17.89a15.08 15.08 0 011.16-2.83c.54-.45.88.43 1.28-.14l-2.74-3.26c-.32-.36-.56-1-1-.68a8.56 8.56 0 01-.08 1.74c-.09.23-.94 3.64-1.93 4.47a21.67 21.67 0 01-2.7 2.09c-.54.19-.83-.59-1.22 0l2.49 3c.12.15.6.87.77.9.52.09.06-.9.11-1.09.15-.43 2.5-2.72 3.5-2.86a19.53 19.53 0 014.69-.59z"/><path d="M25.61 22.87c-4.05-.16-2.35-3.95.39-4.8s8.09 1.71 9.84 3.39c-2.78.86-6.38.74-9.44.88-.23-3.12-1-2-.79.53zm1.01 4.85c-2-1.58-1.39-5.26 1.76-4.14 4 2.08-.85 3.24-1.76 4.14zm8.49 7.7c-8.62-.07-2.79-13.32.14-12.52 3.37 1.08 3 12.62-.14 12.52zm6.11-4.33c-.84 2.51-2.36 3-2.2-.07.2-3.5 2.48-2.66 4.93-4 2-1.12 3.14-5.21 6.64-2.77 1.57 1.1 3.36.18 3.86 1.84 0-.09-4.55 10.31-2 10.31-5 0-2.77-5.93-.87-9.9-1.85.88-4.84 6.69-2.38 7.64-1.28 1.69-5.2 3.94-7.24 2.3-1.55-1.25-.69-3.33-.7-5.35zm4.1 9.61c-3.49 1-8.12-1.21-2.51-2.34 3.48-.71 7.19.77 2.51 2.34zm4.37-.14c-.74-1.66.56-3.64 2.68-2.2 1.85 1.25-.85 3.1-2.68 2.2zm-2.95 4.66c-2.41-.74-10.53-.56-5.21-2.76 1.64-.68 10.15.1 5.21 2.76zm3.26-.35c0-1-.51-2.68 1.35-1.95 2.24.88-1.35 2.66-1.35 1.95zm7.18 3.67c-1.44-1.23-2.89-1.3-4.23 0-1.8-3.29-8.32-2.19-11.37-2.65 1.64 4 14.87 4.78 15.6 2.65zM55.28 51c-3.16-.14-6.68-.56-9.65.09 1.86.46 6.4 1.79 2.17 2.91 1.52 2.17 4 2 5.58.13A15 15 0 0151.83 53c1.67-.3 3.24-1.26 3.45-2.07zm3.59-3.92c-5.29-3.11-3.95-5.42.36-7.58 2.25-1.13 7.32-5.21 9.44-3.85l-9.8 11.43z" fill="#dc6243"/><path d="M55.11 39.81c-4.48-4.6 6.68-4.18 8.48-5.8 1.31.44 10.77-8.28 13.07-7.74-1.65 1.94-5.22 8.14-7.77 8.14-2 0-4-.29-5.47 1.11-2.23 2-5.91 3.08-8.31 4.29z" fill="#f49774"/><path d="M56.57 34.18c-2.45 1.32-4.77-3.9-.53-3.39 2.81.33 5.66-.24 8.34.22a8.65 8.65 0 01-7.81 3.17z" fill="#f4b1a4"/><path class="cls-3" d="M69.21 52.47a5 5 0 01.21 2c-.11.87-1 2.92-2.17 2.33a17.68 17.68 0 01-3.19-2.55c.8-.93 1.51-1.75 2.85-1.29.37.12.69 0 .3-.26s-3.11-2-3.26-1.8.53.86.22 1.47a7.29 7.29 0 01-.93 1.22c-.72-.61-1.92-1.25-1.06-2.26a3.71 3.71 0 012.1-1.33c.57-.11 1.84.39 2-.22L63 48.21c.18.8-3.35 4.53-4.13 5.47-.11.13-.66.6-.67.79 0 .43.63.1.66.09.49-.18 6.82 5.11 7 5.47s-.22.57 0 .73c0 0 .23.22.26.18.39-.46 4.52-6 5.37-6.21-.79-1.22-1.59-2.43-2.37-3.65-.62.25-.04.92.09 1.39zM63 59.17c-2.07-1.34-5.59 1.28-6.12 1.53-1 .49-1.79-.54-1.25-1.5A2.76 2.76 0 0158 57.91c.27 0 1.35.2 1.46 0s.22-.23 0-.35l-2.57-1.73c-.17 1-1.38 1.72-2.07 2.44a4.66 4.66 0 00-1.52 3.15 3 3 0 001.7 2.69 3.32 3.32 0 003.33-.51 19.66 19.66 0 011.92-1.17c1-.47 2.3-.06 1.95 1.27a3.6 3.6 0 01-2.41 2.3 3.31 3.31 0 01-1.87 0c-.43-.14-1-.73-1.23-.11l3.48 2.54a2.35 2.35 0 011.08-1.57 11.54 11.54 0 002-2.13c1.16-1.73 1.54-4.11-.25-5.56zm0 0c.93.6-.59-.49 0 0zm36.74-39.53c-.73.73-8.42-2.34-9-2.76-.29-.11-.3-1.32-.7-.83l-1.22 1.46L87.58 19c-.26.32-.54.46 0 .72.83-.41 5.42 7.35 5 8.47-.73.37-6.92-5.06-7.09-5.42 0-.15.28-1-.21-.94-.22 0-.74.89-.88 1.07-.3.35-.6.71-.89 1.07.33.48.51 0 1 0a13.72 13.72 0 012.24 1.66c-.73 0-2.69.14-2.94.12-.9.11-.42-.67-1-.93l-2.28 2.76-1.33 1.61c-.05.06 0 0 0 .11.33.27.11.17.57 0s6.56 4.93 6.78 5.19c.38.45-.16 1 .41 1.22l1.8-2.19c.09-.11.14-.1 0-.2-.43-.35-.48.22-1 .16s-4.4-3.37-5.9-4.61l8.2-.31c.3 0 1.14.9 1.07 1.22s-.46.56 0 .79c.48-.57 1-1.14 1.46-1.73l.23-.28a.9.9 0 00.21-.27l.16-.21c.43-.48 1.8-2 1.64-2.15-.46-.4-.69.47-1.3-.05a12.89 12.89 0 01-1.44-2.16c-.27-.45.61-.9 1-1.12.78-.48 3.25-1.19 3.48.35 0 .25-.27.55-.08.7s.2.24.27.16l3.3-4a2 2 0 00-.32-.17zm-7.38 2.16l-.08.05.08-.05a5.94 5.94 0 00-1 .76l-1.56-2.69 3.52 1.48a3.75 3.75 0 00-.96.45zM82.62 33a5.49 5.49 0 10.59 7.6 5.33 5.33 0 00-.59-7.6zm-.29 6.62c-1.23 1.29-3.36.1-4.51-.73s-3.11-2.57-1.85-4.1c1-1.29 3.12-.23 4.19.48s3.41 2.6 2.27 4.22c.06-.06.11-.12-.1.14z"/><path class="cls-3" d="M82.62 33c1.17 1-.26-.21 0 0zm-.31 6.65l.08-.11a.7.7 0 00-.08.11zM76 42.14c.12.09.28.22-.06-.06-2.83-2.13-6.19-1.5-8.4 1.16q-1.49 1.77-3 3.56c.35.51.76-.11 1.27.18s6.25 5.1 6.34 5.37c.16.45-.25.54.14.87a40.89 40.89 0 005-6.22A4.33 4.33 0 0076 42.14zm-1.31 6.75c-.24.3 0 0-.67.65-.3.29-6.44-4.67-6.19-4.94a4.34 4.34 0 013.58-1.3c2.21.56 5.23 3.26 3.3 5.59z"/></g></svg>