<svg id="Layer_1" data-name="Layer 1" xmlns="http://www.w3.org/2000/svg" viewBox="0 0 186.64 96.43"><defs><style>.cls-2{fill:#23a9e1}.cls-3{fill:#fff}</style></defs><g id="Layer_2" data-name="Layer 2"><path d="M186.64 0H0l80.49 90.47a16.81 16.81 0 0025.67 0z" fill="#81b3d3"/><path class="cls-2" d="M43.24.72l49.53 58.35 49.32-58L43.24.72z"/><path class="cls-3" d="M122 17.33l-15.18.09c6-6.94 8.69-6.19 15.18-.09zm-41.15 5.36h26.68c-2-1.23-6.71-7.06-9.31-4.89-.22.2-7.5-8.8-12.3-4.5-4.17 3.8-6.12-.5-10.85 2.51-5.4 3.57 3.12 5.67 5.78 6.88z"/><path d="M93.1 0H42.18v22.48L92.76 84l.34-.42 50.75-60.4V0zM54.9 1.79h5.46V19l-5.46-6.5zm-.78 9.77l-5-5.9V1.79h5zm19.3-2.71l-5.74-7.06h5.74zm-6.64 3.83l-5.6-10.89h5.6zm-5.63-9.24l5.52 10.74A58.2 58.2 0 0061.15 19zm6.41-.55l5.61 6.9c-1.12.65-2.16 1.3-3.1 1.93s-1.73 1.2-2.51 1.78zm6.64-.2L79 6.91a50.37 50.37 0 00-4.77 2.3zm5.58 3.89l-5.41-4.79h6v4.59zM98.9 1.79h5l-5 2.44zm-5.79 0h4.43l-4.43 2.06zm-.94 2l-4.24-2h4.24zm-5.49.52l-5.1-2.49h5.1zm-5.57-1.87l4.72 2.3a41.51 41.51 0 00-4.72 1.35zm6.35 0L90.92 4c-1.17.07-2.33.21-3.46.39zm10.42.06v1.94a33.65 33.65 0 00-3.35-.39zm6.48-.06v3.7a40 40 0 00-4.78-1.37zm.78-.65h6l-5.44 4.82-.51-.19V1.79zm13.55 0h5.6l-5.6 10.88zm-6.64 0h5.74l-5.74 7zm-.78.89v6.53a51.17 51.17 0 00-4.81-2.27zm6.64.2v10.51c-.71-.52-1.46-1-2.26-1.56-1-.68-2.15-1.37-3.38-2.06zm6.42.56v15.24a64.63 64.63 0 00-5.48-4.6zm.78 16V1.79h5.46V13.2l-5.39 6.31zm6.24-17.65h5v4.67l-5 5.82zm-83 0v2.94l-2.46-2.94zM61.25 20l.14.13a56.34 56.34 0 019.21-7.65C75.79 9 83.84 4.9 92.76 5s17.06 4.2 22.35 7.67a59.78 59.78 0 019.44 7.63l-3.87 4.53c-6.91.95-11.87 6.08-18.61 5-3.39-.57-3.49-2.52-4.46-4.46-.75-1.49-1.94-1.3-3.49-1.91s-2.28-1.83-5.12-1.15c-2.53.59-2.81 4.52-6 4.29-1.69-.12-1.81-2.49-4.24-5.54-6.3-7.57-12.16-6.52-16.25.48l30.25 35.94zm75.86-14.5V1.79h3.2z" fill="#491213"/><path class="cls-2" d="M88.75 70.92l4.02-6.5 4 6.5-4 6.51-4.02-6.51z"/><path class="cls-3" d="M65.46 32.27a2.78 2.78 0 01.81 2.11c-.06.58-.94 1.55-.27 1.85.75-.95 1.5-1.89 2.24-2.84-.6-.15-5.36-5.85-5.44-6.47l-3.16 1.73c.16.67 1.29 0 1.86.05a2.94 2.94 0 012 1.15c-1.73 1.45-5.93 5-6.38 5.09-.22 0-1.08-.6-1.1 0 0 .26.86 1 1 1.21.74.88 1.48 1.77 2.23 2.65.62-.28-.11-.73.2-1.24s4.9-4.27 6-5.24zm-5.27-6.98c.44-.1.62.43 1-.06l-2.49-2.92c-.37-.44-.84-.91-.71 0 .09.63-6.11 5.66-6.49 5.82s-.76-.42-1.11.1l2.19 2.6c.25.3.48.62.75.89s.21-.68.22-.59c-.09-.51.53-.95.86-1.23a61 61 0 015.78-4.61zm-8.77-.92a3.23 3.23 0 01-4.21-2c-.54-1.84.62-3.76 2.07-4.81s3.59-1 4.38.84a3.62 3.62 0 01-.1 2.51c-.16.5-.59 1 .06 1.28l2.58-3.28c-1.05-.64-1.52-1.68-2.3-2.6A5.83 5.83 0 0050.42 14c-2.87-.41-5.58 2.55-5.8 5.24a5.79 5.79 0 001.25 4c.75 1 1.87 1.63 2.43 2.76a21.88 21.88 0 003.29-1.26 1.49 1.49 0 00-.17-.36zm39.3 36.41c-1.15-.77-4-4.69-4.57-5.34l-.33-.4a2.16 2.16 0 00-.25.2c-.17.14.14.57 0 .86-.79 1.24-5.76 5-6 5.16-.55.39-1.16-.16-1.49.32a46 46 0 003 3.58c.48.08.15-.81.21-1a33.17 33.17 0 013.5-3.16c.34-.28.69.43.89.72a1.78 1.78 0 01.3 1.57c-.12.37-.72.92-.25 1.18l2.61-3.05c.25-.3-.56 0-.47-.09a.9.9 0 01-1.06 0c-.1-.07-1.09-1.08-1-1.16A4.39 4.39 0 0187.34 59c.86-.22 1.58 1.51 1.7 2.12a3.35 3.35 0 01-.04 1.74c-.13.39-.49.7 0 .93l2.13-2.92a.68.68 0 01-.4-.09c-.14-.09.13.07-.01 0zM80.5 56.65a5.48 5.48 0 10-7.8-1.07 5.43 5.43 0 007.8 1.07c1.15-.98-.1.07 0 0zm-.5-4.76a7.45 7.45 0 01-3.73 3.67c-1.82.71-3.1-.83-2.36-2.55a7.43 7.43 0 013.74-3.67c1.85-.73 3.06.85 2.35 2.55-.35.89.1-.17 0 0zM74.05 42c.48.06.93.55 1.27 0l-2.23-2.64c-.59.27 0 .55-.19 1s-2.56.78-3.18.89a16.56 16.56 0 011.16-2.83c.54-.45.88.43 1.28-.14l-2.74-3.26c-.31-.36-.56-1-1-.68a8 8 0 01-.09 1.74c-.09.23-.93 3.64-1.93 4.47a21 21 0 01-2.7 2.09c-.54.19-.82-.59-1.22 0l2.49 3c.13.15.61.87.77.9.52.09.06-.9.11-1.09.16-.43 2.5-2.72 3.5-2.86a19.53 19.53 0 014.7-.59z"/><path d="M67.79 22.87c-4-.16-2.35-3.95.4-4.8s8.09 1.71 9.84 3.39c-2.78.86-6.39.74-9.45.88-.22-3.12-1-2-.79.53zm9.5 12.55c-8.62-.07-2.79-13.32.15-12.52 3.37 1.08 3 12.62-.15 12.52zm6.11-4.33c-.84 2.51-2.36 3-2.19-.07.19-3.5 2.48-2.66 4.93-4 2-1.12 3.14-5.21 6.64-2.77 1.56 1.1 3.35.18 3.85 1.84 0-.09-4.55 10.31-2 10.31-5 0-2.78-5.93-.88-9.9-1.84.88-4.84 6.69-2.38 7.64-1.28 1.69-5.19 3.94-7.23 2.3-1.55-1.25-.69-3.33-.71-5.35zm4.1 9.61c-3.48 1-8.12-1.21-2.5-2.34 3.48-.71 7.18.77 2.5 2.34zm4.37-.14c-.73-1.66.57-3.64 2.68-2.2 1.85 1.25-.85 3.1-2.68 2.2zm-2.94 4.66c-2.41-.74-10.54-.56-5.22-2.76 1.64-.68 10.16.1 5.22 2.76zm10.43 3.32c-1.43-1.23-2.89-1.3-4.23 0-1.79-3.29-8.32-2.19-11.36-2.65 1.64 4 14.86 4.78 15.59 2.65zM97.46 51c-3.15-.14-6.67-.56-9.65.09 1.86.46 6.4 1.79 2.18 2.91 1.51 2.17 4 2 5.58.13A14 14 0 0194 53c1.67-.3 3.23-1.26 3.44-2.07zm3.6-3.92c-5.29-3.11-4-5.42.35-7.58 2.25-1.13 7.32-5.21 9.45-3.85l-9.8 11.43z" fill="#dc6243"/><path d="M97.29 39.81c-4.48-4.6 6.69-4.18 8.49-5.8 1.31.44 10.77-8.28 13.07-7.74-1.66 1.94-5.22 8.14-7.78 8.14-2 0-3.95-.29-5.47 1.11-2.22 2-5.91 3.08-8.31 4.29z" fill="#f49774"/><path d="M98.76 34.18c-2.46 1.32-4.77-3.9-.54-3.39 2.81.33 5.66-.24 8.35.22a8.67 8.67 0 01-7.81 3.17z" fill="#f4b1a4"/><path class="cls-3" d="M111.39 52.47a4.87 4.87 0 01.21 2c-.1.87-1 2.92-2.17 2.33a18 18 0 01-3.19-2.55c.81-.93 1.51-1.75 2.86-1.29.37.12.69 0 .3-.26s-3.12-2-3.26-1.8.52.87.22 1.47a6.85 6.85 0 01-.94 1.22c-.71-.61-1.92-1.25-1-2.26a3.68 3.68 0 012.1-1.34c.56-.11 1.84.39 2-.22l-3.26-1.57c.18.8-3.34 4.53-4.13 5.47-.11.13-.66.61-.66.79 0 .43.62.1.66.09.48-.18 6.81 5.11 7 5.47s-.22.57 0 .73c0 0 .23.22.25.18.39-.46 4.52-6 5.38-6.21-.8-1.22-1.59-2.43-2.37-3.65-.7.26-.13.93 0 1.4zm-6.16 6.7c-2.08-1.34-5.6 1.28-6.13 1.53-1 .49-1.79-.54-1.25-1.5a2.77 2.77 0 012.31-1.29c.28 0 1.35.2 1.46 0s.23-.22 0-.35l-2.52-1.7c-.18 1-1.39 1.72-2.08 2.44a4.7 4.7 0 00-1.52 3.15 3 3 0 001.68 2.66 3.28 3.28 0 003.32-.51 20.92 20.92 0 011.92-1.17c1-.46 2.31-.06 2 1.27A3.58 3.58 0 01102 66a3.23 3.23 0 01-1.9 0c-.43-.14-1-.73-1.23-.11l3.48 2.54a2.37 2.37 0 011.09-1.57 11.49 11.49 0 002-2.13c1.15-1.73 1.56-4.11-.21-5.56zm0 0c.92.6-.59-.49 0 0zm36.69-39.53c-.73.73-8.42-2.34-9-2.76-.29-.11-.3-1.32-.71-.83L131 17.51 129.76 19c-.26.32-.54.46 0 .72.84-.41 5.42 7.35 5 8.47-.72.37-6.91-5.06-7.08-5.42-.05-.15.27-1-.21-.94-.23 0-.74.89-.89 1.07-.3.35-.59.71-.89 1.07.33.48.52 0 1 0a13.72 13.72 0 012.24 1.66c-.72 0-2.68.14-2.93.12-.91.11-.42-.67-1-.93l-2.27 2.76-1.33 1.61v.11c.33.27.1.17.57 0s6.56 4.93 6.77 5.19c.38.45-.15 1 .42 1.22l1.79-2.19c.09-.11.14-.1 0-.2-.42-.35-.47.22-1 .16s-4.39-3.37-5.89-4.61l8.2-.31c.3 0 1.13.9 1.06 1.22s-.46.56.06.79c.48-.57 1-1.14 1.45-1.73l.23-.28a.67.67 0 00.21-.27l.17-.21c.42-.48 1.8-2 1.63-2.15-.46-.4-.68.47-1.29-.05a12.94 12.94 0 01-1.45-2.16c-.26-.45.61-.9 1-1.12.77-.48 3.24-1.19 3.48.35 0 .25-.27.55-.09.7s.21.24.27.16 2.37-2.84 3.3-4a1.39 1.39 0 00-.37-.17zm-7.37 2.16l-.09.05a.15.15 0 00.08-.05 6.33 6.33 0 00-.95.76c-.53-.89-1.05-1.79-1.57-2.69l3.53 1.48a3.48 3.48 0 00-1 .45zM124.8 33a5.48 5.48 0 10.59 7.6 5.33 5.33 0 00-.59-7.6zm-.28 6.62c-1.23 1.29-3.36.1-4.5-.73s-3.11-2.57-1.86-4.1c1.06-1.29 3.13-.23 4.19.48s3.42 2.6 2.28 4.22c.04-.06.1-.12-.11.14z"/><path class="cls-3" d="M124.8 33c1.17 1-.25-.21 0 0zm-.31 6.65a1 1 0 01.08-.11zm-6.28 2.49c.11.09.27.22-.06-.06-2.84-2.13-6.2-1.5-8.41 1.16-1 1.18-2 2.37-3 3.56.35.51.76-.11 1.28.18s6.24 5.1 6.33 5.37c.17.45-.25.54.15.87a41.54 41.54 0 004.97-6.22 4.34 4.34 0 00-1.26-4.86zm-1.32 6.75c-.24.3 0 0-.66.65-.31.29-6.44-4.67-6.2-4.94a4.35 4.35 0 013.58-1.3c2.19.56 5.21 3.26 3.28 5.59z"/></g></svg>