<svg data-name="Layer 1" xmlns="http://www.w3.org/2000/svg" viewBox="0 0 63 75.08"><path d="M60.17 22.23H35.76C49.36 15.41 50.45 11.12 50 8.71c-1.2-3.92-5.66-6.94-9.9-5.34-5.49 2.06-7 10.26-8.52 16.19-1.89-6-3.72-13.65-8-17.53A7.21 7.21 0 0017.9 0c-4 .35-9.65 5.32-7.35 10.85 2.22 5.31 9.54 8.67 14.36 11.35H2.83A2.84 2.84 0 000 25.06v11.19a2.84 2.84 0 002.84 2.83h.26v36h57v-36h.11A2.83 2.83 0 0063 36.25V25.06a2.85 2.85 0 00-2.83-2.83zM41.77 5.87c2.07-.3 4.9 1.29 5.17 3.17.39 2.73-3.35 5.2-5 6.35-2.48 1.72-4.85 2.61-7.17 4 .86-3.64 2.5-12.85 7-13.52zm-22.54 9.85C17 14.25 12.79 11.34 12.89 8c.11-3.51 5.65-6.45 8.68-3.8 3.8 3.34 5.62 11 7 16.36a68.14 68.14 0 01-9.34-4.84zm5.88 56.43H6V39.08h19.11zm0-36.07H3V25.23h22.11zm10 36.07h-7.06V25.23h7.07zm22 0H38.05V39.08h19.08zM60 36.08H38V25.23h22z"/></svg>