<svg id="Layer_1" data-name="Layer 1" xmlns="http://www.w3.org/2000/svg" viewBox="0 0 459.75 350.08"><defs><style>.cls-3{fill:#fff}</style></defs><path d="M165.42 70l-.2.23a6.44 6.44 0 01-4.52 2.22l2.82-4.87c1.81-3.14.14-6.1-2.68-6.1-2.3 0-4.09.92-5.81 3.91L153.56 68l-1.23 2.09-.15.18c-2.16 2.51-4.26 4.49-5.59 4.49-.66 0-1-.46-.34-1.64l6.42-11.2h2.44l.87-1.44h-2.48l2.82-4.89h-3l-2.82 4.89h-2.7l-.86 1.44h2.73l-6 10.43c-1.27 2.21-.37 4.26 2 4.26 1.74 0 3.67-1.31 5.52-3.09 0 3.82 5.29 4.56 8.54.47h.66a9.11 9.11 0 006.15-2.99 2.5 2.5 0 00-1.12-1zm-6.39.2h-.15a1.77 1.77 0 00-1.75 1.8 1.92 1.92 0 00.29 1v.06c-1.41 2.41-4.84 2-3-1.16l2.19-3.9 1.44-2.45c2.1-3.57 5-2.16 3.17.95zm47.85-.2l-.2.23c-2.16 2.51-4.93 4.49-7 4.49-1.84 0-2.94-1.15-1.55-3.57l.28-.52c1.93.81 5.56.43 7.81-3.45l.43-.75c1.61-2.77.06-4.84-2.39-4.84a6.34 6.34 0 00-5.62 3.46l-2.9 5-.17.2c-2.16 2.5-4.27 4.49-5.59 4.49-.66 0-1-.46-.35-1.64l4.32-7.57c1.3-2.28.06-3.92-1.61-3.92-1.3 0-2.68.72-4.18 2.28l4.78-8.33h-3L181.57 70l-.17.19c-2.16 2.5-4.26 4.49-5.59 4.49-.66 0-1-.46-.34-1.64l6.42-11.2h2.44l.87-1.44h-2.48l2.82-4.9h-3l-2.82 4.9H177l-.86 1.44h2.73l-6 10.42c-1.26 2.22-.37 4.26 2 4.26a6.74 6.74 0 003.82-1.62l-.69 1.37h3l4.55-7.91c4.61-5.79 6.65-5 5.36-2.82L187 72.3c-1.27 2.22-.38 4.27 2 4.27 1.78 0 3.76-1.38 5.65-3.22.14 1.86 1.65 3.22 4.05 3.22 3.4 0 6.77-2.65 9.25-5.53a2.55 2.55 0 00-1.07-1.04zm-5.7-4.2c1.72-3 4.78-2.48 3 .63l-.43.75c-1.44 2.45-3.37 2.39-4.49 2zM316.05 70l-.2.23a18.83 18.83 0 01-3.6 3.25c.95-2.85.74-7.22 2.59-11.05l-2.25-1.21c-1.24 1.7-3.94 5.61-6.65 8.78l-.2.23c-2.16 2.51-4.26 4.49-5.59 4.49-.66 0-1-.46-.34-1.64l6.39-11.2h-3l-5.33 9.3c-2.27 2.07-4 3.22-4.6 3-.75-.31 0-1.43.37-2.07l5.85-10.19h-3L291.8 70l-.19.23a6.46 6.46 0 01-4.52 2.22l2.82-4.87c1.81-3.14.14-6.1-2.68-6.1-2.3 0-4.09.92-5.81 3.91L280 68l-1.23 2.09-.16.18c-2.15 2.51-4.92 4.49-7 4.49-1.84 0-2.94-1.15-1.56-3.57l.29-.52c1.93.81 5.56.44 7.81-3.45l.43-.75c1.61-2.76.06-4.84-2.39-4.84a6.34 6.34 0 00-5.62 3.46l-2.9 5-.17.2c-2.48 2.85-4.61 4.69-7 5.7l6.71-11.46h-1.76a3.17 3.17 0 00-3.14-2.88 6.67 6.67 0 00-5.13 3.46l-2.87 5-.21.23c-2.15 2.5-4.26 4.49-5.58 4.49-.66 0-1-.46-.35-1.64l3-5.24a3.06 3.06 0 00-.44-4.06l-1.67-2a1.17 1.17 0 01.14-1.89l-1.56-1.7c-1.7 1.53-1.84 3.23-.77 4.61l.26.35c-1.33 1.87-3.11 4.4-5.07 6.71l-.2.23a6.46 6.46 0 01-4.52 2.22l2.82-4.87c1.81-3.14.14-6.1-2.68-6.1-2.3 0-4.09.92-5.81 3.91L230.2 68l-1.2 2.06-.15.17c-2.48 2.85-4.61 4.69-7 5.7l6.71-11.46h-1.76a3.17 3.17 0 00-3.14-2.88 6.64 6.64 0 00-5.12 3.46l-4.21 7.25c-1.26 2.22-.37 4.26 2 4.26a5.74 5.74 0 002.85-1l-.79 1.44c-4 1.23-6.56 2.87-6.56 5.12 0 2.88 4.4 3.49 6.56-.2l2.28-4a18.19 18.19 0 007.18-4.48c0 3.84 5.29 4.59 8.54.48h.66a9.07 9.07 0 006.13-2.9c1.44-1.67 2.56-3.17 4.95-6.42l.4.48a1.48 1.48 0 01.18 1.7l-3.17 5.5c-1.27 2.22-.37 4.27 2.05 4.27 1.51 0 3.17-1 4.8-2.44a2.31 2.31 0 002.61 2.46 5.76 5.76 0 002.86-1L257 77c-4 1.23-6.56 2.88-6.56 5.12 0 2.88 4.4 3.48 6.56-.2l2.27-3.92a18.62 18.62 0 007.32-4.62c.13 1.87 1.64 3.23 4.06 3.23s4.85-1.36 6.94-3.2c-.11 3.92 5.27 4.72 8.54.58h.67a8.56 8.56 0 003.33-.85c-.81 2.08-.07 3.48 1.65 3.48s3.48-1.5 4.92-2.88a2.33 2.33 0 002.56 2.88c2.48 0 5.33-2.65 7.8-5.53 1.7-2 3.2-4.06 4.26-5.47-1.18 3.11-.54 8.69-3.39 8.69a1.66 1.66 0 01-1.41-1.09l-1.88 1a3.27 3.27 0 003.29 2.42 7.91 7.91 0 00.83-.06h.09c3-.4 6.07-2.82 8.32-5.44a1.91 1.91 0 00-1.12-1.14zm-43-4.2c1.73-3 4.78-2.48 3 .63l-.43.75c-1.44 2.45-3.37 2.39-4.5 2zm-57.16 15.6c-.64 1.13-1.64.95-1.64.15s.72-1.67 3-2.56zm1.38-6.68c-.66 0-1-.46-.35-1.64l4.18-7.28c1.61-2.8 4.81-2.08 3.34.63l-2.27 4c-1.82 2.88-3.63 4.29-4.9 4.29zm18.4-4.52h-.15a1.77 1.77 0 00-1.75 1.8 2 2 0 00.28 1v.06c-1.41 2.41-4.84 2-3.06-1.16l2.26-3.9 1.44-2.45c2.1-3.57 5-2.16 3.16.95zm18.82 11.2c-.63 1.13-1.64.95-1.64.15s.72-1.67 3-2.56zm1.39-6.68c-.67 0-1-.46-.35-1.64l4.18-7.28c1.61-2.8 4.8-2.08 3.34.63l-2.28 4c-1.77 2.88-3.63 4.29-4.89 4.29zm29.54-4.52h-.15a1.78 1.78 0 00-1.76 1.8 2 2 0 00.29 1v.06c-1.41 2.41-4.83 2-3-1.16L283 68l1.44-2.45c2.11-3.57 5-2.16 3.17.95zm-184-3.38h28.92v1.96h-28.92zm227 0h28.92v1.96h-28.92z" fill="#766458"/><path d="M163.18 0h7.71l-1.21 44.92h-14.52l-2-18.55-2 18.55h-14.54L135.47 0h7.65l.63 37.15h.83L149.36 0h7.58l4.91 37.15h.76zM195 37.15v7.77h-20.86V0H195v7.7h-13.22v10.84h10.58v7.7h-10.58v10.91zm21.37 0v7.77h-18.28V0h7.65v37.15zm16.25-8.79l7.71-1.8v13.61a4.81 4.81 0 01-4.72 4.75h-11.47a4.77 4.77 0 01-4.71-4.75V4.75A4.72 4.72 0 01224.14 0h11.47a4.76 4.76 0 014.71 4.75v9.11l-7.7 1.8v-8h-5.55v29.49h5.55v-8.79zM261.09 0a4.76 4.76 0 014.71 4.75v35.42a4.8 4.8 0 01-4.71 4.75h-11.47a4.76 4.76 0 01-4.71-4.75V4.75A4.72 4.72 0 01249.62 0zm-3 7.7h-5.55v29.45h5.55zM290.84 0h7.58v44.92h-7.65V22.84l-3.06 11.43h-7.45l-3-11.43v22.08h-7.65V0h7.58L284 21.69zm32.29 37.15v7.77h-20.89V0h20.89v7.7h-13.25v10.84h10.58v7.7h-10.58v10.91z" fill="#81b3d3"/><path class="cls-3" d="M44.47 157.61a20.45 20.45 0 00-12.9-5c-3.58 0-8.34 2.08-8.34 6.25 0 4.37 5.26 6.06 8.63 7.15l5 1.49c10.42 3.07 18.46 8.33 18.46 20.44 0 7.45-1.79 15.09-7.74 20.15s-13.7 7.05-21.24 7.05A46.22 46.22 0 010 206.64L8.34 191c4.86 4.27 10.62 7.74 17.27 7.74 4.57 0 9.43-2.28 9.43-7.54 0-5.46-7.64-7.35-11.81-8.54C11 179.15 3 176 3 161.48c0-15.19 10.82-25.11 25.81-25.11a51.2 51.2 0 0123.42 6.15zm47.36-2.78v12.51h21.94v16.48H91.83v12.9H115v16.48H72.38v-74.85H115v16.48zm37.59-16.48H157c20.85 0 38 16.38 38 37.42s-17.27 37.42-38 37.42h-27.58zm19.45 58.37h4.37c11.61 0 21.54-6.35 21.54-20.94 0-13.41-8.84-20.95-21.34-20.95h-4.57zm138-22.34c0 24.22-17.37 41.3-41.39 41.3s-41.39-17.07-41.39-41.3c0-22.63 19.85-38.51 41.39-38.51s41.39 15.88 41.39 38.51zm-62.53.1c0 12.91 9.53 22.34 21.14 22.34s21.14-9.43 21.14-22.34c0-10.32-9.52-19.75-21.14-19.75s-21.14 9.43-21.14 19.75zm72.9-36.13h19.45l35.64 45.76h.2v-45.76H372v74.84h-19.47l-35.64-45.85h-.2v45.85h-19.45zm110.11 61.84l-5.16 13h-20.65l28.79-74.84h21.24l28.18 74.84H439l-4.86-13zM421 161.48h-.2l-8 23.82h16.18zM108.08 287.74c7.66-2.59 8.24-12.18.69-12.18-2.08 0-4.56 1.46-6.27 4.45l-10.21 17.65a14.37 14.37 0 01-1.46 2.15c-2.62-3.61-1.86-9 1.82-11.38l-1.53-1.93c-8 5.07-5.61 19.69 7.66 19.69 11.34 0 16.6-13.6 9.3-18.45zm-9.37 15.54a10.83 10.83 0 01-5.47-1.28 18.79 18.79 0 001.89-2.69l6.39-11.06 1 .11c8.92 1.83 5.38 14.92-3.81 14.92zm4.08-17.28l3.07-5.25c2.77-4.78 6.31-2 4.41 1.6-1.46 2.73-3.61 3.57-7.48 3.65z"/><path class="cls-3" d="M140.16 300c-.63 2.25.57 4.08 3.15 4.08 1.53 0 3.42-1 5.25-2.48.18 1.46 1.35 2.48 3.28 2.48s4.23-1.4 6.39-3.36c-.42 2 .54 3.36 2.41 3.36 2.08 0 4.42-1.9 6.24-3.65-.37 2 .84 3.65 3.25 3.65 3.13 0 6.74-3.36 9.88-7l-.1-.16c2.09-2.43 3.94-5 5.27-6.77-1.5 3.94-.7 11-4.31 11a2.13 2.13 0 01-1.79-1.38l-2.37 1.23a4.14 4.14 0 004.16 3.06c.36 0 .69 0 1.06-.07h.11c2.78-.37 5.55-2.06 7.94-4.22.06 2.49 2 4.33 5.15 4.33 4.3 0 8.56-3.36 11.7-7a3.23 3.23 0 00-1.42-1.32l-.26.3c-2.73 3.17-6.23 5.68-8.89 5.68-2.34 0-3.72-1.45-2-4.52l.36-.65c2.45 1 7 .54 9.89-4.38l.54-.95c2-3.5.08-6.12-3-6.12a8 8 0 00-7.11 4.37l-3.69 6.32-.1-.05-.26.29a23.42 23.42 0 01-4.56 4.13c1.21-3.61.95-9.16 3.29-14l-2.85-1.53c-1.57 2.15-5 7.11-8.42 11.12a1.34 1.34 0 00.11.14l-.14.15c-2.73 3.18-5.39 5.69-7.07 5.69-.84 0-1.32-.58-.44-2.08l8.1-14.18h-3.8l-6.74 11.78c-2.89 2.62-5.11 4.08-5.84 3.75-.95-.4 0-1.82.48-2.62l7.4-12.91h-3.8l-6 10.44-.29-.16-.25.29c-2.74 3.17-5.4 5.69-7.08 5.69-.84 0-1.31-.58-.44-2.08l6.13-10.72h-2.15a4 4 0 00-4-3.83c-2 0-4.88 1.6-6.49 4.38l-3.85 6.63a2.82 2.82 0 00-.57-.36l-.26.29c-2.73 3.17-6.23 5.69-8.89 5.69-2.34 0-3.72-1.46-2-4.52l3.9-6.78c2.19-3.76 6-3.14 3.79.8l-.55.95h3.1l.55-.95c2-3.5.07-6.13-3-6.13a8 8 0 00-7.11 4.38l-3.77 6.48a3 3 0 00-.35-.19l-.25.29c-2.74 3.17-6.24 5.69-8.9 5.69-2.33 0-3.72-1.46-2-4.52l.37-.66c2.44 1 7 .55 9.88-4.37l.55-.95c2-3.5.07-6.13-3-6.13a8 8 0 00-7.11 4.38l-4 6.81c-2.37 4.05-.32 7.77 4.16 7.77 3.34 0 6.66-2 9.44-4.63-.1 2.64 1.87 4.63 5.14 4.63 3.12-.04 6.2-1.78 8.85-4.12zm58-9.56c2.19-3.76 6.05-3.14 3.79.8l-.55.95c-1.82 3.1-4.26 3-5.68 2.52zM144 299.67l5.29-9.23c2-3.54 6.09-2.63 4.23.8l-3 5.18c-2.29 3.61-4.56 5.32-6.12 5.32-.8 0-1.28-.58-.4-2.07zm-24.19-9.23c2.19-3.76 6.06-3.14 3.8.8l-.55.95c-1.82 3.1-4.27 3-5.69 2.52zm128.59 13.64c4.3 0 8.57-3.36 11.71-7a3.26 3.26 0 00-1.43-1.32l-.25.3c-2.74 3.17-6.24 5.68-8.9 5.68-2.33 0-3.72-1.45-2-4.52l.36-.65c2.45 1 7 .54 9.89-4.38l.54-.95c2-3.5.08-6.12-3-6.12a8 8 0 00-7.11 4.37l-3.7 6.34-.11-.07-.25.3c-2.74 3.17-5.4 5.68-7.08 5.68-.84 0-1.31-.58-.44-2.08l5.47-9.59c1.64-2.88.08-5-2-5-1.64 0-3.39.92-5.29 2.89l6.06-10.54H237L226.35 296a2.3 2.3 0 00-.44-.26l-.25.3c-2.74 3.17-5.4 5.68-7.08 5.68-.84 0-1.31-.58-.44-2.08l8.14-14.18h3.1l1.09-1.83h-3.13l3.57-6.19h-3.79l-3.58 6.19h-3.42l-1.1 1.83h3.46l-7.62 13.2c-1.6 2.81-.47 5.4 2.59 5.4 1.89 0 3.94-1.22 6-3l-1.5 2.61h3.83l5.76-10c5.84-7.33 8.43-6.38 6.78-3.57l-4.92 8.57c-1.6 2.81-.47 5.4 2.59 5.4 2.3 0 4.86-1.82 7.3-4.22.08 2.45 2.01 4.23 5.11 4.23zm3.06-13.64c2.19-3.76 6.06-3.14 3.79.8l-.54.95c-1.83 3.1-4.27 3-5.69 2.52zm111.96 5.33l-.26.29c-2.73 3.17-5.39 5.69-7.07 5.69-.84 0-1.31-.59-.44-2.08l12.84-22.21h-3.8l-5.58 9.62a4.1 4.1 0 00-3.46-2c-2 0-4.89 1.6-6.49 4.37l-3.71 6.41-.24-.14-.26.3c-2.73 3.17-5.39 5.68-7.07 5.68-.84 0-1.31-.58-.44-2.08l5.47-9.59c1.64-2.88.07-5-2-5-1.64 0-3.35.88-5.25 2.85l1.42-2.48h-3.79l-6.1 10.6a3.65 3.65 0 00-.36-.21l-.26.3c-2.73 3.17-5.4 5.68-7.07 5.68-.84 0-1.32-.58-.44-2.08l6.12-10.72H323a3.94 3.94 0 00-4-3.83c-2.05 0-4.89 1.61-6.5 4.38l-3.66 6.33-.21.23c-2.73 3.17-5.39 5.69-7.07 5.69-.84 0-1.31-.58-.44-2.08L305 293c1.32-2.3.69-3.65-.54-5.15l-2.12-2.55a1.48 1.48 0 01.22-2.19l-2-2.15c-2.15 1.93-2.33 4.08-1 5.84l.33.43c-1.68 2.37-3.94 5.58-6.43 8.5.08.11.17.21.26.32-3.12 3.59-5.78 5.92-8.76 7.19l4.81-8.24H286l-.4.66c-2 3.53-4.3 6.05-7.26 6.05-2.59 0-3.06-2.59-.8-6.45l1.06-1.86a13.36 13.36 0 002.15.18c13.49 0 20-18.05 8.13-18.05-2.08 0-4.56 1.46-6.27 4.45l-5.91 10.17a6.1 6.1 0 01-3.39-5.39 6 6 0 012.44-4.78l-1.24-2.23a8.36 8.36 0 00.88 14.63l-1.13 2c-2.66 4.59-2.19 9.7 3.17 9.7a7.6 7.6 0 004.12-1.21l-1 1.72c-5.14 1.56-8.32 3.64-8.32 6.49 0 3.64 5.58 4.41 8.32-.26l2.91-5c3.94-1.24 7.81-3.94 12-8.75a2.5 2.5 0 00-.24-.36c1.69-2 3.12-3.89 6-7.78l.51.62a1.86 1.86 0 01.22 2.16l-4 7c-1.6 2.81-.47 5.4 2.59 5.4 1.91 0 4-1.25 6-3 0 1.74 1.15 3 3.31 3 1.54 0 3.43-1 5.25-2.48.19 1.45 1.36 2.48 3.29 2.48s3.79-1.13 5.74-2.79l-1.4 2.42h3.83l5.8-10.1c5.8-7.26 8.39-6.31 6.74-3.5l-4.92 8.57c-1.6 2.81-.47 5.39 2.59 5.39 2 0 4.23-1.38 6.38-3.34-.2 1.9 1 3.34 3.3 3.34 1.53 0 3.42-1 5.25-2.48.18 1.46 1.35 2.48 3.28 2.48 3.14 0 6.75-3.35 9.88-7a3.25 3.25 0 00-1.44-1.33zm-78-14.16c1.13-1.93 2.37-2.77 3.42-2.77 6 0 1.79 12.26-8.13 12.26H280zm-8.06 28.6c-.8 1.42-2.08 1.2-2.08.18s.87-2.12 3.79-3.25zm39.69-13.79c-2.3 3.61-4.56 5.32-6.13 5.32-.84 0-1.31-.58-.44-2.08l5.29-9.22c2-3.54 6.09-2.63 4.23.8zm36.7-.22c-2.3 3.76-4.63 5.54-6.24 5.54-.83 0-1.31-.58-.43-2.08l5.28-9.22c2.05-3.54 6.09-2.63 4.23.8zm-117.04 35.56l-.25.3c-2.74 3.17-5.4 5.69-7.08 5.69-.84 0-1.31-.59-.43-2.08l5.47-9.59c1.64-2.89.07-5-2-5-1.64 0-3.35.87-5.25 2.84l1.43-2.48h-3.8l-6.11 10.57a3.61 3.61 0 00-.48-.29l-.26.3a8.22 8.22 0 01-5.72 2.81l3.57-6.17c2.3-4 .18-7.73-3.39-7.73-2.92 0-5.18 1.17-7.37 5l-1.86 3.25-1.68 2.82a1.45 1.45 0 00-.34-.19l-.25.29c-3.14 3.61-5.8 5.94-8.79 7.22l10.39-17.8h-3.79L192 333.15c-2.92 2.7-5.18 4.2-5.91 3.87-.95-.4 0-1.82.48-2.63l7.4-12.91h-3.79L184.13 332a1.79 1.79 0 00-.33-.18l-.25.29c-2.74 3.17-5.4 5.69-7.08 5.69-.84 0-1.31-.59-.43-2.08l5.46-9.59c1.65-2.88.08-5-2-5-1.64 0-3.35.87-5.25 2.84l1.42-2.48h-3.79l-6.1 10.51a2.64 2.64 0 00-.36-.2l-.26.29c-2.73 3.17-5.39 5.69-7.07 5.69-.84 0-1.31-.59-.44-2.08l6.13-10.7h-2.15a4 4 0 00-4-3.83c-2 0-4.89 1.6-6.49 4.37l-3.92 6.77a2.07 2.07 0 00-.83-.49l-.25.29c-2.74 3.17-6.09 5.69-9.85 5.69-2.59 0-4.16-2.59-1.9-6.46l1.06-1.86a13.43 13.43 0 002.15.19c4 0 8.65-2.08 11.64-7.3a10.59 10.59 0 001.53-5.1c0-3.43-2.23-5.65-5-5.65-2.07 0-4.55 1.46-6.27 4.45l-5.91 10.17a6.12 6.12 0 01-3.39-5.4 6 6 0 012.45-4.77l-1.25-2.23a8.36 8.36 0 00.88 14.63l-1.13 2c-2.66 4.59-1.09 9.7 4.27 9.7 4.24 0 7.35-1.89 10-4.38-.83 2.39.37 4.38 3 4.38 1.54 0 3.43-1 5.26-2.48.18 1.46 1.35 2.48 3.28 2.48s3.79-1.13 5.74-2.79l-1.4 2.42h3.83l5.8-10.1c5.8-7.26 8.39-6.31 6.75-3.5l-4.93 8.57c-1.6 2.81-.47 5.39 2.59 5.39 2 0 4.29-1.42 6.47-3.42-.46 2.09.51 3.42 2.4 3.42s3.9-1.53 5.61-3.06l-2.08 3.57c-5.14 1.53-8.35 3.65-8.35 6.49 0 3.65 5.58 4.42 8.31-.25l2.92-5a23.89 23.89 0 009.56-6.19c-.52 5.29 6.54 6.5 10.79 1.12h.84a11.09 11.09 0 004.95-1.45l-2.55 4.41H218l5.8-10.1c5.8-7.26 8.39-6.31 6.75-3.51l-4.93 8.57c-1.6 2.81-.47 5.4 2.59 5.4s6.75-3.35 9.89-7a3.37 3.37 0 00-1.39-1.4zm-94.38-14.15c1.13-1.93 2.37-2.77 3.42-2.77 1.43 0 2.08 1 2.08 2.34 0 3.53-4.3 9.92-10.21 9.92h-.76zm13.35 14.81c-2.3 3.61-4.56 5.32-6.13 5.32-.83 0-1.31-.58-.43-2.08l5.28-9.22c2-3.54 6.09-2.63 4.23.8zm28.85 13.78c-.8 1.43-2.08 1.21-2.08.19s.92-2.12 3.83-3.25zm25.53-14.2h-.18a2.24 2.24 0 00-2.23 2.26 2.49 2.49 0 00.37 1.28v.07c-1.79 3.06-6.13 2.48-3.87-1.46l2.89-5 1.82-3.1c2.66-4.52 6.31-2.73 4 1.21zm114.56 1.08a2.39 2.39 0 00-1.42-1.32l-.26.3a23.36 23.36 0 01-4.56 4.12c1.21-3.61.95-9.15 3.29-14l-2.85-1.53c-1.57 2.15-5 7.11-8.43 11.12h-.05l-.25.3c-2.74 3.17-5.4 5.69-7.08 5.69-.84 0-1.64-.84-1.64-2.56v-1.57c2.66.33 5.47-1.42 7.26-4.52l1-1.75c3.53-6.05-2.23-8.06-6.09-4.52l5.39-9.37h-3.79l-10.82 18.77a2.67 2.67 0 00-.69-.46l-.26.29c-2.73 3.17-6.23 5.69-8.89 5.69-2.34 0-3.72-1.46-2-4.52l3.9-6.78c2.18-3.76 6.05-3.14 3.79.8l-.55.95h3.1l.55-.95c2-3.5.07-6.13-3-6.13a8 8 0 00-7.11 4.38l-3.73 6.4-.23-.13-.26.29c-2.73 3.17-5.4 5.69-7.07 5.69-.84 0-1.31-.58-.44-2.08l8.1-14.18h-3.8L269 333.26c-2.89 2.63-5.11 4.09-5.84 3.76-.95-.4 0-1.82.47-2.63l7.41-12.9h-3.8l-7.36 12.74a23.71 23.71 0 01-2.45 1.95c1.2-3.61.95-9.15 3.28-14l-2.84-1.54c-1.57 2.16-10.32 13.75-13.75 17.77a5.46 5.46 0 001.42 1.31c2.15-2.48 9.37-11.78 10.72-13.57-1.49 3.94-.69 11-4.3 11a2.12 2.12 0 01-1.79-1.39l-2.33 1.24a4.13 4.13 0 004.16 3.06 9.59 9.59 0 001.06-.07h.1a13.09 13.09 0 005.64-2.38 2.28 2.28 0 002.5 2.49c2.08 0 4.42-1.89 6.24-3.64-.36 2 .84 3.64 3.25 3.64s5-1.89 7.46-4.38c0 2.52 2 4.38 5.15 4.38s6.13-1.72 8.77-4l-2.11 3.67h3.83l4.34-7.55v3c0 3.24.62 4.88 3.68 4.88s6.75-3.35 9.89-7c2.15-2.48 4.05-5.14 5.4-6.93-1.5 3.94-.69 11-4.3 11a2.11 2.11 0 01-1.79-1.38l-2.35 1.21a4.13 4.13 0 004.16 3.06c.36 0 .69 0 1.05-.07h.11c3.92-.53 7.7-3.59 10.54-6.91zm-25.19-3l1.1-1.9c4.37-6.09 7.36-4.41 6-2.11l-1.83 3.13c-1.11 1.98-4.43 3.37-5.27.89zm25.04 5.58a2.18 2.18 0 00-2.18 2.23 2.14 2.14 0 002.18 2.19 2.19 2.19 0 002.23-2.19 2.22 2.22 0 00-2.23-2.23zm.18-1.49h3.84l11.88-20.71h-3.79l-11.93 20.71zM80.41 277.58a2.52 2.52 0 01-.67 1.68 2.72 2.72 0 01-.83.57 2.64 2.64 0 01-1.1.22 3.47 3.47 0 01-1.31-.25 2.92 2.92 0 01-1.06-.73 3 3 0 01-.57-1.05 3.86 3.86 0 01-.21-1.28 6 6 0 011.76-4.3 5.33 5.33 0 01.85-.69 6.83 6.83 0 01.89-.54c.28-.15.53-.27.73-.36a4.06 4.06 0 00.37-.17l1.36 2c-.25.09-.53.21-.83.35a4.46 4.46 0 00-.86.54 2.88 2.88 0 00-.68.76 2.3 2.3 0 00-.31 1 2.77 2.77 0 011.73.57 2 2 0 01.74 1.68zm7.87 0a2.5 2.5 0 01-.17.88 2.37 2.37 0 01-.51.8 2.5 2.5 0 01-.83.57 2.6 2.6 0 01-1.1.22 3.42 3.42 0 01-1.3-.25 2.84 2.84 0 01-1.06-.73 3.13 3.13 0 01-.58-1.05 4.13 4.13 0 01-.2-1.28 6.1 6.1 0 01.45-2.37 6 6 0 011.31-1.93 5.72 5.72 0 01.84-.69 7.63 7.63 0 01.9-.54c.28-.15.52-.27.73-.36a4.06 4.06 0 00.37-.17l1.35 2c-.25.09-.52.21-.83.35a5.16 5.16 0 00-.86.54 3 3 0 00-.67.76 2.07 2.07 0 00-.31 1 2.74 2.74 0 011.73.58 2 2 0 01.74 1.67zm265.16 58.94a2.5 2.5 0 01.17-.88 2.23 2.23 0 01.51-.79 2.59 2.59 0 01.82-.58 2.8 2.8 0 011.1-.22 3.48 3.48 0 011.31.26 2.92 2.92 0 011.06.73 3.18 3.18 0 01.58 1 4.25 4.25 0 01.2 1.29 6 6 0 01-.46 2.37 6 6 0 01-2.15 2.62 10.1 10.1 0 01-.89.54l-.73.35-.37.17-1.36-2a8.72 8.72 0 00.83-.36 3.88 3.88 0 00.86-.54 2.9 2.9 0 00.68-.76 2.11 2.11 0 00.3-1 2.74 2.74 0 01-1.72-.57 2 2 0 01-.74-1.63zm-7.87 0a2.5 2.5 0 01.17-.88 2.38 2.38 0 01.51-.79 2.52 2.52 0 01.83-.58 2.73 2.73 0 011.1-.22 3.43 3.43 0 011.3.26 3 3 0 011.07.73 3.36 3.36 0 01.57 1 4 4 0 01.2 1.29 6.17 6.17 0 01-.45 2.37 6 6 0 01-1.31 1.92 5.38 5.38 0 01-.84.7q-.48.31-.9.54c-.28.14-.52.26-.73.35l-.37.17-1.35-2a8.72 8.72 0 00.83-.36 4.12 4.12 0 00.86-.54 3.09 3.09 0 00.68-.76 2.11 2.11 0 00.3-1 2.79 2.79 0 01-1.73-.57 2 2 0 01-.74-1.63z"/></svg>